<?xml version="1.0" encoding="UTF-8"?>
<svg class='logo-icon' width="30px" height="25px" viewBox="0 0 30 25" version="1.1" xmlns="http://www.w3.org/2000/svg" xmlns:xlink="http://www.w3.org/1999/xlink">
    <g id="logo-icon-wrapper" stroke="none" stroke-width="1" fill="none" fill-rule="evenodd">
        <g id="logo" transform="translate(-1.000000, -4.000000)" fill="#FFC2C2">
            <path d="M20.8496421,25.3866466 C14.3406256,28.6206007 7.06092042,30.229459 3.10872174,25.5194121 C0.816262682,22.7873658 1.3282434,20.1573607 2.46578498,15.0600299 C3.60332656,9.96269911 7.16003276,5.03619555 12.4105423,4.53369664 C17.6610519,4.03119772 25.3842288,7.77833374 29.3364275,12.4883807 C33.2886261,17.1984277 27.3586586,22.1526924 20.8496421,25.3866466 Z M9.17127072,18.8453039 C8.90276109,19.2331511 8.90773341,19.7154667 9.2160221,20.2922652 C9.85248937,21.1674077 10.6977848,21.8535887 11.7519337,22.3508287 C12.8060826,22.8480688 13.8900497,23.0966851 15.0038674,23.0966851 C15.5011075,23.0966851 15.9983401,22.9773493 16.4955801,22.738674 C16.9928202,22.4999988 17.4353572,22.1817699 17.8232044,21.7839779 C18.2110517,21.3861859 18.5243082,20.9337042 18.7629834,20.4265193 C19.0016587,19.9193345 19.1209945,19.3972403 19.1209945,18.860221 C19.1209945,18.1839745 19.0165756,17.6071847 18.8077348,17.1298343 C18.598894,16.6524838 18.3055268,16.2447531 17.9276243,15.9066298 C17.5497219,15.5685066 17.1022125,15.285084 16.5850829,15.0563536 C16.0679532,14.8276232 15.5011081,14.6237578 14.8845304,14.4447514 C14.6657448,14.3850826 14.4370178,14.3204423 14.1983425,14.2508287 C13.9596673,14.1812151 13.7359126,14.0966856 13.5270718,13.9972376 C13.318231,13.8977896 13.1292826,13.7734814 12.960221,13.6243094 C12.7911594,13.4751374 12.6469619,13.2911613 12.5276243,13.0723757 C12.4679555,12.5154668 12.5773467,12.1176808 12.8558011,11.8790055 C13.1342555,11.6403303 13.4823184,11.5060775 13.9,11.4762431 C14.3176816,11.4464087 14.7403294,11.4861873 15.1679558,11.5955801 C15.5955822,11.7049729 15.9287281,11.8193364 16.1674033,11.938674 C16.4657473,12.0977909 16.7491699,12.1773481 17.0176796,12.1773481 C17.2861892,12.1773481 17.5248608,12.1176802 17.7337017,11.9983425 C17.9425425,11.8790049 18.1116016,11.7248628 18.240884,11.5359116 C18.3701664,11.3469604 18.4348066,11.1331504 18.4348066,10.8944751 C18.4348066,10.6955791 18.3651941,10.4867414 18.2259669,10.2679558 C18.0867396,10.0491702 17.8779019,9.84033249 17.5994475,9.64143646 C16.8834218,9.24364442 16.0729327,8.96519417 15.1679558,8.80607735 C14.2629789,8.64696053 13.3928219,8.67679449 12.5574586,8.89558011 C12.1397769,8.99502812 11.7469632,9.17900418 11.3790055,9.44751381 C11.0110479,9.71602344 10.692819,10.0342523 10.4243094,10.4022099 C10.1557998,10.7701676 9.94198975,11.172926 9.78287293,11.6104972 C9.62375611,12.0480685 9.5441989,12.4756885 9.5441989,12.8933702 C9.5441989,13.1917142 9.60386681,13.5149154 9.72320442,13.8629834 C9.84254203,14.2110515 10.0116011,14.5342527 10.2303867,14.8325967 C10.469062,15.1508303 10.7176783,15.4143636 10.9762431,15.6232044 C11.2348079,15.8320452 11.5033135,16.0060767 11.781768,16.1453039 C12.0602224,16.2845311 12.3486173,16.3988946 12.6469613,16.4883978 C12.9453054,16.577901 13.2436449,16.6624305 13.541989,16.741989 C13.7209954,16.8016578 13.9149161,16.851381 14.1237569,16.8911602 C14.3325977,16.9309394 14.5513801,16.9906073 14.7801105,17.0701657 C15.0088409,17.1497242 15.2276233,17.26906 15.4364641,17.4281768 C15.6453049,17.5872936 15.8392256,17.806076 16.018232,18.0845304 C16.1574593,18.303316 16.2270718,18.5419877 16.2270718,18.8005525 C16.2270718,19.0591173 16.1723762,19.297789 16.0629834,19.5165746 C15.9535906,19.7353602 15.7845315,19.9292809 15.5558011,20.0983425 C15.3270707,20.2674042 15.0635374,20.3817677 14.7651934,20.4414365 C14.1287261,20.5607741 13.5221023,20.4314936 12.9453039,20.0535912 C12.3685054,19.6756887 11.8712728,19.2082901 11.4535912,18.6513812 C11.0557991,18.3928164 10.687847,18.2635359 10.3497238,18.2635359 C9.8325941,18.2635359 9.43978035,18.4574566 9.17127072,18.8453039 Z"></path>
        </g>
    </g>
</svg>
