<?xml version="1.0" encoding="UTF-8"?>
<svg width="32px" height="32px" viewBox="0 0 32 32" version="1.1" xmlns="http://www.w3.org/2000/svg" xmlns:xlink="http://www.w3.org/1999/xlink">
    <g id="menu-toggle-wrapper" stroke="none" stroke-width="1" fill="none" fill-rule="evenodd">
        <g id="toggle-wrapper" fill="#FFC2C2">
            <path d="M16,32 C7.163444,32 0,25.6377352 0,16.516129 C0,7.39452284 7.163444,0 16,0 C24.836556,0 32,7.39452284 32,16.516129 C32,25.6377352 24.836556,32 16,32 Z M15.8283328,22.3595115 L15.8283328,22.3595115 C16.3925266,22.4112676 16.9710874,22.2141651 17.4010774,21.7703045 L23.0840154,15.9040458 C23.8474119,15.1160237 23.8520221,13.8040854 23.0709735,12.9978417 C22.2844796,12.185977 21.0294341,12.1855706 20.2555883,12.9843791 L15.8283328,17.5544493 L11.4010774,12.9843791 C10.6272316,12.1855706 9.37218607,12.185977 8.58569215,12.9978417 C7.80464357,13.8040854 7.80925381,15.1160237 8.57265023,15.9040458 L14.2555883,21.7703045 C14.6855783,22.2141651 15.2641391,22.4112676 15.8283328,22.3595115 Z" id="menu-toggle"></path>
        </g>
    </g>
</svg>
